<svg width="256" height="255" viewBox="0 0 256 255" fill="none" xmlns="http://www.w3.org/2000/svg">
    <path d="M126.771 0C61.939 4.6242e-06 65.9876 28.1152 65.9876 28.1152L66.0599 57.2422H127.928V65.9876H41.4862C41.4862 65.9876 0 61.2827 0 126.699C-4.624e-06 192.115 36.2101 189.796 36.2101 189.796H57.8204V159.44C57.8204 159.44 56.6556 123.23 93.4523 123.23H154.814C154.814 123.23 189.29 123.787 189.29 89.9108V33.8972C189.29 33.8972 194.524 0 126.771 0ZM92.6572 19.5867C98.8126 19.5867 103.788 24.5617 103.788 30.7171C103.788 36.8725 98.8126 41.8475 92.6572 41.8475C86.5018 41.8475 81.5268 36.8725 81.5268 30.7171C81.5268 24.5617 86.5018 19.5867 92.6572 19.5867Z" fill="white"/>
    <path d="M128.613 254.054C193.445 254.054 189.396 225.939 189.396 225.939L189.324 196.812H127.456V188.066H213.898C213.898 188.066 255.384 192.771 255.384 127.355C255.384 61.9386 219.174 64.2584 219.174 64.2584H197.563V94.6141C197.563 94.6141 198.728 130.824 161.932 130.824H100.57C100.57 130.824 66.0942 130.267 66.0942 164.143V220.157C66.0942 220.157 60.8599 254.054 128.613 254.054ZM162.727 234.467C156.571 234.467 151.596 229.492 151.596 223.337C151.596 217.181 156.571 212.206 162.727 212.206C168.882 212.206 173.857 217.181 173.857 223.337C173.857 229.492 168.882 234.467 162.727 234.467Z" fill="#680194"/>
    </svg>